<?xml version="1.0" standalone="no"?>
<!DOCTYPE svg PUBLIC "-//W3C//DTD SVG 20010904//EN"
 "http://www.w3.org/TR/2001/REC-SVG-20010904/DTD/svg10.dtd">
<svg version="1.0" xmlns="http://www.w3.org/2000/svg"
 width="534.000000pt" height="534.000000pt" viewBox="0 0 534.000000 534.000000"
 preserveAspectRatio="xMidYMid meet">
<metadata>
Created by potrace 1.11, written by Peter Selinger 2001-2013
</metadata>
<g transform="translate(0.000000,534.000000) scale(0.100000,-0.100000)"
fill="#000000" stroke="none">
<path d="M2608 5225 c-1 -1 -51 -6 -110 -9 -112 -6 -263 -32 -363 -62 -33 -10
-62 -19 -65 -19 -3 -1 -12 -4 -20 -8 -8 -3 -42 -15 -75 -27 -143 -51 -343
-166 -475 -273 -519 -420 -768 -1087 -645 -1732 22 -116 21 -113 45 -193 63
-215 206 -480 339 -632 35 -40 38 -47 25 -61 -8 -8 -14 -21 -14 -28 0 -9 63
-101 108 -156 22 -27 22 -37 -4 -70 l-26 -35 54 0 54 0 79 -107 c44 -60 165
-223 269 -363 104 -140 257 -347 340 -458 218 -294 489 -658 535 -720 l40 -54
113 174 c62 95 149 228 193 295 44 67 87 134 95 148 8 14 64 101 125 193 110
168 255 390 392 602 188 290 317 488 336 516 18 27 26 31 59 30 22 -2 41 1 43
4 2 4 -9 20 -25 35 -36 35 -37 39 -5 73 71 76 218 325 272 462 23 59 70 205
77 242 2 13 9 46 15 73 23 110 35 229 35 355 0 85 -12 269 -18 279 -3 3 -7 27
-11 51 -34 234 -197 598 -349 778 -87 104 -117 136 -189 205 -81 76 -202 171
-275 214 -193 114 -397 199 -547 228 -147 28 -204 36 -295 41 -58 3 -110 7
-117 9 -6 2 -13 2 -15 0z"/>
</g>
</svg>
